<mxfile host="Electron" agent="Mozilla/5.0 (Windows NT 10.0; Win64; x64) AppleWebKit/537.36 (KHTML, like Gecko) draw.io/27.0.5 Chrome/134.0.6998.205 Electron/35.3.0 Safari/537.36" version="27.0.5">
  <diagram name="Page-1" id="1eBJDCAseDbYibXAmx8T">
    <mxGraphModel dx="1389" dy="835" grid="1" gridSize="10" guides="1" tooltips="1" connect="1" arrows="1" fold="1" page="1" pageScale="1" pageWidth="850" pageHeight="1100" math="0" shadow="0">
      <root>
        <mxCell id="0" />
        <mxCell id="1" parent="0" />
        <mxCell id="x6HBWGZqbggS8Ydn5rsP-5" value="" style="rounded=0;whiteSpace=wrap;html=1;fillStyle=auto;" parent="1" vertex="1">
          <mxGeometry x="20" y="80" width="140" height="580" as="geometry" />
        </mxCell>
        <mxCell id="x6HBWGZqbggS8Ydn5rsP-6" value="&lt;font style=&quot;font-size: 23px;&quot;&gt;Source&lt;/font&gt;" style="rounded=0;whiteSpace=wrap;html=1;strokeColor=none;fillStyle=auto;" parent="1" vertex="1">
          <mxGeometry x="30" y="50" width="120" height="60" as="geometry" />
        </mxCell>
        <mxCell id="x6HBWGZqbggS8Ydn5rsP-7" value="" style="rounded=0;whiteSpace=wrap;html=1;" parent="1" vertex="1">
          <mxGeometry x="210" y="80" width="450" height="580" as="geometry" />
        </mxCell>
        <mxCell id="x6HBWGZqbggS8Ydn5rsP-9" value="&lt;font style=&quot;font-size: 23px;&quot;&gt;Data Warehouse&lt;/font&gt;" style="rounded=0;whiteSpace=wrap;html=1;strokeColor=none;fillStyle=auto;" parent="1" vertex="1">
          <mxGeometry x="310" y="50" width="230" height="60" as="geometry" />
        </mxCell>
        <mxCell id="x6HBWGZqbggS8Ydn5rsP-11" value="" style="rounded=0;whiteSpace=wrap;html=1;" parent="1" vertex="1">
          <mxGeometry x="710" y="80" width="130" height="580" as="geometry" />
        </mxCell>
        <mxCell id="x6HBWGZqbggS8Ydn5rsP-12" value="&lt;font style=&quot;font-size: 23px;&quot;&gt;Consume&lt;/font&gt;" style="rounded=0;whiteSpace=wrap;html=1;strokeColor=none;fillStyle=auto;" parent="1" vertex="1">
          <mxGeometry x="730" y="50" width="90" height="60" as="geometry" />
        </mxCell>
        <mxCell id="x6HBWGZqbggS8Ydn5rsP-13" value="&lt;b&gt;Bronze Layer&lt;/b&gt;" style="rounded=0;whiteSpace=wrap;html=1;fillColor=#FFB570;" parent="1" vertex="1">
          <mxGeometry x="230" y="130" width="120" height="20" as="geometry" />
        </mxCell>
        <mxCell id="x6HBWGZqbggS8Ydn5rsP-14" value="" style="rounded=0;whiteSpace=wrap;html=1;fillColor=none;fillStyle=solid;strokeColor=#FFB570;" parent="1" vertex="1">
          <mxGeometry x="230" y="160" width="120" height="490" as="geometry" />
        </mxCell>
        <mxCell id="x6HBWGZqbggS8Ydn5rsP-15" value="&lt;b&gt;Silver Layer&lt;/b&gt;" style="rounded=0;whiteSpace=wrap;html=1;fillColor=#808080;" parent="1" vertex="1">
          <mxGeometry x="375" y="130" width="120" height="20" as="geometry" />
        </mxCell>
        <mxCell id="x6HBWGZqbggS8Ydn5rsP-16" value="&lt;span style=&quot;color: rgba(0, 0, 0, 0); font-family: monospace; font-size: 0px; text-align: start; text-wrap-mode: nowrap;&quot;&gt;%3CmxGraphModel%3E%3Croot%3E%3CmxCell%20id%3D%220%22%2F%3E%3CmxCell%20id%3D%221%22%20parent%3D%220%22%2F%3E%3CmxCell%20id%3D%222%22%20value%3D%22%22%20style%3D%22html%3D1%3BverticalLabelPosition%3Dbottom%3Balign%3Dcenter%3BlabelBackgroundColor%3D%23ffffff%3BverticalAlign%3Dtop%3BstrokeWidth%3D2%3BstrokeColor%3D%230080F0%3Bshadow%3D0%3Bdashed%3D0%3Bshape%3Dmxgraph.ios7.icons.data%3B%22%20vertex%3D%221%22%20parent%3D%221%22%3E%3CmxGeometry%20x%3D%22272.67%22%20y%3D%22240%22%20width%3D%2234.66%22%20height%3D%2240%22%20as%3D%22geometry%22%2F%3E%3C%2FmxCell%3E%3C%2Froot%3E%3C%2FmxGraphModel%3E&lt;/span&gt;" style="rounded=0;whiteSpace=wrap;html=1;fillColor=default;strokeColor=#808080;" parent="1" vertex="1">
          <mxGeometry x="375" y="160" width="120" height="490" as="geometry" />
        </mxCell>
        <mxCell id="x6HBWGZqbggS8Ydn5rsP-17" value="&lt;b&gt;Silver Layer&lt;/b&gt;" style="rounded=0;whiteSpace=wrap;html=1;fillColor=#FFD966;" parent="1" vertex="1">
          <mxGeometry x="520" y="130" width="115" height="20" as="geometry" />
        </mxCell>
        <mxCell id="x6HBWGZqbggS8Ydn5rsP-18" value="" style="rounded=0;whiteSpace=wrap;html=1;fillColor=none;strokeColor=#FFD966;" parent="1" vertex="1">
          <mxGeometry x="520" y="160" width="115" height="490" as="geometry" />
        </mxCell>
        <mxCell id="x6HBWGZqbggS8Ydn5rsP-25" value="" style="group" parent="1" vertex="1" connectable="0">
          <mxGeometry x="60" y="160" width="70" height="62.400000000000006" as="geometry" />
        </mxCell>
        <mxCell id="x6HBWGZqbggS8Ydn5rsP-19" value="&lt;div&gt;&lt;b&gt;&lt;br&gt;&lt;/b&gt;&lt;/div&gt;&lt;b&gt;CRM&lt;/b&gt;" style="image;aspect=fixed;html=1;points=[];align=center;fontSize=12;image=img/lib/azure2/general/Folder_Blank.svg;" parent="x6HBWGZqbggS8Ydn5rsP-25" vertex="1">
          <mxGeometry width="59.93" height="48.64" as="geometry" />
        </mxCell>
        <mxCell id="x6HBWGZqbggS8Ydn5rsP-20" value="" style="image;aspect=fixed;html=1;points=[];align=center;fontSize=12;image=img/lib/azure2/general/File.svg;" parent="x6HBWGZqbggS8Ydn5rsP-25" vertex="1">
          <mxGeometry x="40" y="25.44" width="30" height="36.96" as="geometry" />
        </mxCell>
        <mxCell id="x6HBWGZqbggS8Ydn5rsP-26" value="" style="group" parent="1" vertex="1" connectable="0">
          <mxGeometry x="60" y="290" width="68.04999999999998" height="60" as="geometry" />
        </mxCell>
        <mxCell id="x6HBWGZqbggS8Ydn5rsP-27" value="&lt;div&gt;&lt;b&gt;&lt;br&gt;&lt;/b&gt;&lt;/div&gt;&lt;div&gt;&lt;b&gt;ERP&lt;/b&gt;&lt;/div&gt;" style="image;aspect=fixed;html=1;points=[];align=center;fontSize=12;image=img/lib/azure2/general/Folder_Blank.svg;" parent="x6HBWGZqbggS8Ydn5rsP-26" vertex="1">
          <mxGeometry width="59.93" height="48.64" as="geometry" />
        </mxCell>
        <mxCell id="x6HBWGZqbggS8Ydn5rsP-28" value="" style="image;aspect=fixed;html=1;points=[];align=center;fontSize=12;image=img/lib/azure2/general/File.svg;" parent="x6HBWGZqbggS8Ydn5rsP-26" vertex="1">
          <mxGeometry x="35.58" y="20" width="32.47" height="40" as="geometry" />
        </mxCell>
        <mxCell id="x6HBWGZqbggS8Ydn5rsP-31" value="&lt;b&gt;Object Type: &lt;/b&gt;CSV&lt;div&gt;&lt;b&gt;Interface&lt;/b&gt;: Files in Folder&lt;/div&gt;" style="rounded=0;whiteSpace=wrap;html=1;strokeColor=none;" parent="1" vertex="1">
          <mxGeometry x="30" y="390" width="120" height="60" as="geometry" />
        </mxCell>
        <mxCell id="x6HBWGZqbggS8Ydn5rsP-33" value="" style="endArrow=none;html=1;rounded=0;" parent="1" edge="1">
          <mxGeometry width="50" height="50" relative="1" as="geometry">
            <mxPoint x="30" y="380" as="sourcePoint" />
            <mxPoint x="150" y="380" as="targetPoint" />
          </mxGeometry>
        </mxCell>
        <mxCell id="x6HBWGZqbggS8Ydn5rsP-34" value="" style="html=1;verticalLabelPosition=bottom;align=center;labelBackgroundColor=#ffffff;verticalAlign=top;strokeWidth=2;strokeColor=#994C00;shadow=0;dashed=0;shape=mxgraph.ios7.icons.data;fillColor=#CC6600;" parent="1" vertex="1">
          <mxGeometry x="272.67" y="182.4" width="34.66" height="40" as="geometry" />
        </mxCell>
        <mxCell id="x6HBWGZqbggS8Ydn5rsP-35" value="" style="html=1;verticalLabelPosition=bottom;align=center;labelBackgroundColor=#ffffff;verticalAlign=top;strokeWidth=2;strokeColor=#4D4D4D;shadow=0;dashed=0;shape=mxgraph.ios7.icons.data;fillColor=#808080;" parent="1" vertex="1">
          <mxGeometry x="417.67" y="182.4" width="34.66" height="40" as="geometry" />
        </mxCell>
        <mxCell id="x6HBWGZqbggS8Ydn5rsP-36" value="" style="html=1;verticalLabelPosition=bottom;align=center;labelBackgroundColor=#ffffff;verticalAlign=top;strokeWidth=2;strokeColor=#999900;shadow=0;dashed=0;shape=mxgraph.ios7.icons.data;fillColor=#FFD966;" parent="1" vertex="1">
          <mxGeometry x="567.67" y="182.4" width="34.66" height="40" as="geometry" />
        </mxCell>
        <mxCell id="x6HBWGZqbggS8Ydn5rsP-39" value="" style="shape=singleArrow;whiteSpace=wrap;html=1;fillColor=#99CCFF;arrowWidth=0.39142892020089165;arrowSize=0.36964329310825905;" parent="1" vertex="1">
          <mxGeometry x="330" y="240" width="50" height="30" as="geometry" />
        </mxCell>
        <mxCell id="x6HBWGZqbggS8Ydn5rsP-42" value="Raw Data" style="text;html=1;align=center;verticalAlign=middle;whiteSpace=wrap;rounded=0;" parent="1" vertex="1">
          <mxGeometry x="260" y="240" width="60" height="30" as="geometry" />
        </mxCell>
        <mxCell id="x6HBWGZqbggS8Ydn5rsP-43" value="Cleaned Standardized&amp;nbsp;&lt;div&gt;Data&lt;/div&gt;" style="text;html=1;align=center;verticalAlign=middle;whiteSpace=wrap;rounded=0;" parent="1" vertex="1">
          <mxGeometry x="405" y="240" width="60" height="30" as="geometry" />
        </mxCell>
        <mxCell id="x6HBWGZqbggS8Ydn5rsP-44" value="Business Ready Data" style="text;html=1;align=center;verticalAlign=middle;whiteSpace=wrap;rounded=0;" parent="1" vertex="1">
          <mxGeometry x="555" y="240" width="60" height="30" as="geometry" />
        </mxCell>
        <mxCell id="x6HBWGZqbggS8Ydn5rsP-45" value="" style="endArrow=none;html=1;rounded=0;" parent="1" edge="1">
          <mxGeometry width="50" height="50" relative="1" as="geometry">
            <mxPoint x="255" y="289" as="sourcePoint" />
            <mxPoint x="325" y="289" as="targetPoint" />
          </mxGeometry>
        </mxCell>
        <mxCell id="x6HBWGZqbggS8Ydn5rsP-46" value="" style="endArrow=none;html=1;rounded=0;" parent="1" edge="1">
          <mxGeometry width="50" height="50" relative="1" as="geometry">
            <mxPoint x="395" y="289" as="sourcePoint" />
            <mxPoint x="465" y="289" as="targetPoint" />
          </mxGeometry>
        </mxCell>
        <mxCell id="x6HBWGZqbggS8Ydn5rsP-47" value="" style="endArrow=none;html=1;rounded=0;" parent="1" edge="1">
          <mxGeometry width="50" height="50" relative="1" as="geometry">
            <mxPoint x="555" y="290" as="sourcePoint" />
            <mxPoint x="625" y="290" as="targetPoint" />
          </mxGeometry>
        </mxCell>
        <mxCell id="x6HBWGZqbggS8Ydn5rsP-48" value="&lt;font style=&quot;font-size: 9px;&quot;&gt;&lt;b style=&quot;&quot;&gt;Object Type&lt;/b&gt;: Table&lt;/font&gt;&lt;div&gt;&lt;font style=&quot;font-size: 9px;&quot;&gt;&lt;br&gt;&lt;/font&gt;&lt;/div&gt;&lt;div&gt;&lt;font style=&quot;font-size: 9px;&quot;&gt;&lt;b&gt;Load&lt;/b&gt;:&lt;/font&gt;&lt;/div&gt;&lt;ul&gt;&lt;li&gt;&lt;span style=&quot;background-color: transparent; color: light-dark(rgb(0, 0, 0), rgb(255, 255, 255));&quot;&gt;&lt;font style=&quot;font-size: 9px;&quot;&gt;Batch Processing&lt;/font&gt;&lt;/span&gt;&lt;/li&gt;&lt;li&gt;&lt;span style=&quot;background-color: transparent; color: light-dark(rgb(0, 0, 0), rgb(255, 255, 255));&quot;&gt;&lt;font style=&quot;font-size: 9px;&quot;&gt;Full Load&lt;/font&gt;&lt;/span&gt;&lt;/li&gt;&lt;li&gt;&lt;span style=&quot;background-color: transparent; color: light-dark(rgb(0, 0, 0), rgb(255, 255, 255));&quot;&gt;&lt;font style=&quot;font-size: 9px;&quot;&gt;Truncate &amp;amp; Insert&lt;/font&gt;&lt;/span&gt;&lt;/li&gt;&lt;/ul&gt;&lt;div&gt;&lt;font style=&quot;font-size: 9px;&quot;&gt;&lt;b&gt;No Transformations&lt;/b&gt;&lt;/font&gt;&lt;/div&gt;&lt;div&gt;&lt;font style=&quot;font-size: 9px;&quot;&gt;&lt;b style=&quot;&quot;&gt;Data Model&lt;/b&gt;: None (As-is)&lt;/font&gt;&lt;/div&gt;" style="text;html=1;align=left;verticalAlign=middle;whiteSpace=wrap;rounded=0;" parent="1" vertex="1">
          <mxGeometry x="240" y="300" width="100" height="190" as="geometry" />
        </mxCell>
        <mxCell id="x6HBWGZqbggS8Ydn5rsP-49" value="&lt;font style=&quot;font-size: 9px;&quot;&gt;&lt;b&gt;Object Type&lt;/b&gt;: Table&lt;/font&gt;&lt;div&gt;&lt;font style=&quot;font-size: 9px;&quot;&gt;&lt;br&gt;&lt;/font&gt;&lt;/div&gt;&lt;div&gt;&lt;font style=&quot;font-size: 9px;&quot;&gt;&lt;b&gt;Load&lt;/b&gt;:&lt;/font&gt;&lt;/div&gt;&lt;div&gt;&lt;ul&gt;&lt;li&gt;&lt;span style=&quot;background-color: transparent; color: light-dark(rgb(0, 0, 0), rgb(255, 255, 255));&quot;&gt;&lt;font style=&quot;font-size: 9px;&quot;&gt;Batch Processing&lt;/font&gt;&lt;/span&gt;&lt;/li&gt;&lt;li&gt;&lt;font style=&quot;font-size: 9px;&quot;&gt;Full Load&lt;/font&gt;&lt;/li&gt;&lt;li&gt;&lt;font style=&quot;font-size: 9px;&quot;&gt;Truncate &amp;amp; Insert&lt;/font&gt;&lt;/li&gt;&lt;/ul&gt;&lt;font style=&quot;font-size: 9px;&quot;&gt;&lt;b&gt;Transformations&lt;/b&gt;:&lt;/font&gt;&lt;/div&gt;&lt;div&gt;&lt;ul&gt;&lt;li&gt;&lt;font style=&quot;font-size: 9px;&quot;&gt;Data Cleansing&lt;/font&gt;&lt;/li&gt;&lt;li&gt;&lt;font style=&quot;font-size: 9px;&quot;&gt;Data Standardization&lt;/font&gt;&lt;/li&gt;&lt;li&gt;&lt;font style=&quot;font-size: 9px;&quot;&gt;Data Normalization&lt;/font&gt;&lt;/li&gt;&lt;li&gt;&lt;font style=&quot;font-size: 9px;&quot;&gt;&amp;nbsp;Derived Columns&lt;/font&gt;&lt;/li&gt;&lt;li&gt;&lt;font style=&quot;font-size: 9px;&quot;&gt;Data Enrichment&lt;/font&gt;&lt;/li&gt;&lt;/ul&gt;&lt;/div&gt;&lt;div&gt;&lt;font style=&quot;font-size: 9px;&quot;&gt;&lt;b&gt;Data Model&lt;/b&gt;: None (As-is)&lt;/font&gt;&lt;/div&gt;" style="text;html=1;align=left;verticalAlign=middle;whiteSpace=wrap;rounded=0;" parent="1" vertex="1">
          <mxGeometry x="380" y="300" width="90" height="340" as="geometry" />
        </mxCell>
        <mxCell id="x6HBWGZqbggS8Ydn5rsP-50" value="" style="shape=singleArrow;whiteSpace=wrap;html=1;fillColor=#99CCFF;arrowWidth=0.39142892020089165;arrowSize=0.36964329310825905;" parent="1" vertex="1">
          <mxGeometry x="490" y="240" width="50" height="30" as="geometry" />
        </mxCell>
        <mxCell id="x6HBWGZqbggS8Ydn5rsP-51" value="" style="shape=singleArrow;whiteSpace=wrap;html=1;fillColor=#99CCFF;arrowWidth=0.39142892020089165;arrowSize=0.36964329310825905;" parent="1" vertex="1">
          <mxGeometry x="160" y="240" width="50" height="30" as="geometry" />
        </mxCell>
        <mxCell id="x6HBWGZqbggS8Ydn5rsP-52" value="" style="shape=singleArrow;whiteSpace=wrap;html=1;fillColor=#99CCFF;arrowWidth=0.39142892020089165;arrowSize=0.36964329310825905;" parent="1" vertex="1">
          <mxGeometry x="660" y="240" width="50" height="30" as="geometry" />
        </mxCell>
        <mxCell id="x6HBWGZqbggS8Ydn5rsP-53" value="&lt;font style=&quot;font-size: 9px;&quot;&gt;&lt;b style=&quot;&quot;&gt;Object Type&lt;/b&gt;: Table&lt;/font&gt;&lt;div&gt;&lt;font style=&quot;font-size: 9px;&quot;&gt;&lt;br&gt;&lt;/font&gt;&lt;div&gt;&lt;font style=&quot;font-size: 9px;&quot;&gt;&lt;b&gt;No Load&lt;/b&gt;&lt;/font&gt;&lt;/div&gt;&lt;div&gt;&lt;font style=&quot;font-size: 9px;&quot;&gt;&lt;b&gt;&lt;br&gt;&lt;/b&gt;&lt;/font&gt;&lt;div&gt;&lt;font style=&quot;font-size: 9px;&quot;&gt;&lt;b&gt;Transformations&lt;/b&gt;:&lt;/font&gt;&lt;/div&gt;&lt;div&gt;&lt;ul&gt;&lt;li&gt;&lt;font style=&quot;font-size: 9px;&quot;&gt;Data Integrations&lt;/font&gt;&lt;/li&gt;&lt;li&gt;&lt;font style=&quot;font-size: 9px;&quot;&gt;Aggregations&lt;/font&gt;&lt;/li&gt;&lt;li&gt;&lt;font style=&quot;font-size: 9px;&quot;&gt;Business Logics&lt;/font&gt;&lt;/li&gt;&lt;/ul&gt;&lt;/div&gt;&lt;div&gt;&lt;font style=&quot;font-size: 9px;&quot;&gt;&lt;b&gt;Data Model&lt;/b&gt;:&lt;/font&gt;&lt;/div&gt;&lt;/div&gt;&lt;/div&gt;&lt;div&gt;&lt;ul&gt;&lt;li&gt;&lt;font style=&quot;font-size: 9px;&quot;&gt;Star Schema&lt;br&gt;&lt;/font&gt;&lt;/li&gt;&lt;li&gt;&lt;font style=&quot;font-size: 9px;&quot;&gt;Flat Table&lt;/font&gt;&lt;/li&gt;&lt;li&gt;&lt;font style=&quot;font-size: 9px;&quot;&gt;Aggregated Table&lt;/font&gt;&lt;/li&gt;&lt;/ul&gt;&lt;/div&gt;" style="text;html=1;align=left;verticalAlign=middle;whiteSpace=wrap;rounded=0;" parent="1" vertex="1">
          <mxGeometry x="525" y="290" width="90" height="290" as="geometry" />
        </mxCell>
        <mxCell id="x6HBWGZqbggS8Ydn5rsP-56" value="" style="group" parent="1" vertex="1" connectable="0">
          <mxGeometry x="741.22" y="160" width="78.77999999999997" height="42" as="geometry" />
        </mxCell>
        <mxCell id="x6HBWGZqbggS8Ydn5rsP-54" value="&lt;div&gt;&lt;br&gt;&lt;/div&gt;BI &amp;amp; Reporting" style="image;aspect=fixed;html=1;points=[];align=left;fontSize=12;image=img/lib/azure2/power_platform/PowerBI.svg;" parent="x6HBWGZqbggS8Ydn5rsP-56" vertex="1">
          <mxGeometry width="30" height="40" as="geometry" />
        </mxCell>
        <mxCell id="x6HBWGZqbggS8Ydn5rsP-55" value="" style="verticalLabelPosition=bottom;aspect=fixed;html=1;shape=mxgraph.salesforce.analytics;" parent="x6HBWGZqbggS8Ydn5rsP-56" vertex="1">
          <mxGeometry x="40" y="2" width="38.78" height="38" as="geometry" />
        </mxCell>
        <mxCell id="x6HBWGZqbggS8Ydn5rsP-58" value="&lt;span style=&quot;background-color: light-dark(#ffffff, var(--ge-dark-color, #121212));&quot;&gt;Ad-Hoc SQL&amp;nbsp;&lt;/span&gt;&lt;div&gt;&lt;span style=&quot;background-color: light-dark(#ffffff, var(--ge-dark-color, #121212));&quot;&gt;Queries&lt;/span&gt;&lt;/div&gt;" style="shadow=0;dashed=0;html=1;strokeColor=none;fillColor=#4495D1;labelPosition=center;verticalLabelPosition=bottom;verticalAlign=top;align=center;outlineConnect=0;shape=mxgraph.veeam.magnifying_glass;pointerEvents=1;" parent="1" vertex="1">
          <mxGeometry x="760" y="280" width="55.2" height="54.4" as="geometry" />
        </mxCell>
        <mxCell id="b6YPXpvVa40JsigQi0v--1" value="&lt;div&gt;&lt;br&gt;&lt;/div&gt;&lt;div&gt;&lt;br&gt;&lt;/div&gt;&lt;div&gt;&lt;br&gt;&lt;/div&gt;&lt;div&gt;&lt;br&gt;&lt;/div&gt;&lt;div&gt;&lt;br&gt;&lt;/div&gt;&lt;div&gt;&lt;br&gt;&lt;/div&gt;&lt;div&gt;Machine Learning&lt;/div&gt;" style="points=[];aspect=fixed;html=1;align=center;shadow=0;dashed=0;fillColor=#FF6A00;strokeColor=none;shape=mxgraph.alibaba_cloud.machine_learning;" vertex="1" parent="1">
          <mxGeometry x="755.7099999999999" y="420" width="49.8" height="50.099999999999994" as="geometry" />
        </mxCell>
        <mxCell id="b6YPXpvVa40JsigQi0v--2" value="SQL Server" style="image;sketch=0;aspect=fixed;html=1;points=[];align=center;fontSize=12;image=img/lib/mscae/dep/SQL_Server_Stretch_DB.svg;" vertex="1" parent="1">
          <mxGeometry x="230" y="20" width="50" height="50" as="geometry" />
        </mxCell>
      </root>
    </mxGraphModel>
  </diagram>
</mxfile>
